<svg viewBox="0 0 256 256" xmlns="http://www.w3.org/2000/svg"><path d="m57.159 4h156.682a0 0 0 0 1 0 0v248a0 0 0 0 1 0 0h-156.682a25 25 0 0 1 -25-25v-198a25 25 0 0 1 25-25z" fill="#fcc24c"/><path d="m41.159 227v-198a25 25 0 0 1 25-25h-9a25 25 0 0 0 -25 25v198a25 25 0 0 0 25 25h9a25 25 0 0 1 -25-25z" fill="#fce06a"/><path d="m58.159 4h155.682v248h-155.682z" fill="#526faa"/><path d="m204.841 4h9v248h-9z" fill="#34518c"/><path d="m84.242 42.145h103.516v46.14h-103.516z" fill="#f4efed"/><path d="m191.971 230.13h21.87v21.87h-21.87z" fill="#fcc24c"/><path d="m213.841 254h-155.682a2 2 0 0 1 -2-2v-248a2 2 0 0 1 2-2h155.682a2 2 0 0 1 2 2v248a2 2 0 0 1 -2 2zm-153.682-4h151.682v-244h-151.682z" fill="#690589"/><path d="m32.159 42.145h26v9.888h-26z" fill="#f4efed"/><path d="m32.159 60.456h26v9.888h-26z" fill="#f4efed"/><path d="m32.159 60.456h9v9.888h-9z" fill="#fff"/><path d="m32.159 42.145h9v9.888h-9z" fill="#fff"/><path d="m32.159 185.656h26v9.888h-26z" fill="#f4efed"/><path d="m32.159 203.967h26v9.888h-26z" fill="#f4efed"/><g fill="#690589"><path d="m41.159 102.811a2 2 0 0 1 -2-2v-12a2 2 0 0 1 4 0v12a2 2 0 0 1 -2 2z"/><path d="m58.159 54.032h-26a2 2 0 0 1 -2-2v-9.887a2 2 0 0 1 2-2h26a2 2 0 0 1 2 2v9.887a2 2 0 0 1 -2 2zm-24-4h22v-5.887h-22z"/><path d="m58.159 72.344h-26a2 2 0 0 1 -2-2v-9.888a2 2 0 0 1 2-2h26a2 2 0 0 1 2 2v9.888a2 2 0 0 1 -2 2zm-24-4h22v-5.888h-22z"/><path d="m187.758 90.284h-103.516a2 2 0 0 1 -2-2v-46.139a2 2 0 0 1 2-2h103.516a2 2 0 0 1 2 2v46.139a2 2 0 0 1 -2 2zm-101.516-4h99.516v-42.139h-99.516z"/></g><path d="m191.971 4h21.87v21.87h-21.87z" fill="#fcc24c"/><path d="m204.841 4h9v21.87h-9z" fill="#dea42e"/><path d="m204.841 230.13h9v21.87h-9z" fill="#dea42e"/><path d="m213.841 27.87h-21.87a2 2 0 0 1 -2-2v-21.87a2 2 0 0 1 2-2h21.87a2 2 0 0 1 2 2v21.87a2 2 0 0 1 -2 2zm-19.87-4h17.87v-17.87h-17.87z" fill="#690589"/><path d="m213.841 254h-21.87a2 2 0 0 1 -2-2v-21.87a2 2 0 0 1 2-2h21.87a2 2 0 0 1 2 2v21.87a2 2 0 0 1 -2 2zm-19.87-4h17.87v-17.87h-17.87z" fill="#690589"/><path d="m32.159 185.656h9v9.888h-9z" fill="#fff"/><path d="m32.159 203.967h9v9.888h-9z" fill="#fff"/><path d="m58.159 197.544h-26a2 2 0 0 1 -2-2v-9.888a2 2 0 0 1 2-2h26a2 2 0 0 1 2 2v9.888a2 2 0 0 1 -2 2zm-24-4h22v-5.888h-22z" fill="#690589"/><path d="m58.159 215.855h-26a2 2 0 0 1 -2-2v-9.887a2 2 0 0 1 2-2h26a2 2 0 0 1 2 2v9.887a2 2 0 0 1 -2 2zm-24-4h22v-5.887h-22z" fill="#690589"/><path d="m213.841 254h-156.682a27.03 27.03 0 0 1 -27-27v-198a27.03 27.03 0 0 1 27-27h156.682a2 2 0 0 1 2 2v248a2 2 0 0 1 -2 2zm-156.682-248a23.026 23.026 0 0 0 -23 23v198a23.026 23.026 0 0 0 23 23h154.682v-244z" fill="#690589"/><path d="m175.588 145.314h43.253a5 5 0 0 0 5-5v-24.628a5 5 0 0 0 -5-5h-43.253a17.314 17.314 0 0 0 -17.314 17.314 17.314 17.314 0 0 0 17.314 17.314z" fill="#fcc24c"/><path d="m218.841 110.685h-9a5 5 0 0 1 5 5v24.63a5 5 0 0 1 -5 5h9a5 5 0 0 0 5-5v-24.63a5 5 0 0 0 -5-5z" fill="#dea42e"/><path d="m218.841 147.315h-43.253a19.315 19.315 0 0 1 0-38.63h43.253a7.008 7.008 0 0 1 7 7v24.63a7.008 7.008 0 0 1 -7 7zm-43.253-34.63a15.315 15.315 0 0 0 0 30.63h43.253a3 3 0 0 0 3-3v-24.63a3 3 0 0 0 -3-3z" fill="#690589"/><circle cx="178.482" cy="128" fill="#526faa" r="7.575"/><path d="m178.482 137.575a9.575 9.575 0 1 1 9.576-9.575 9.587 9.587 0 0 1 -9.576 9.575zm0-15.15a5.575 5.575 0 1 0 5.576 5.575 5.581 5.581 0 0 0 -5.576-5.575z" fill="#690589"/></svg>
