<svg viewBox="0 0 256 256" xmlns="http://www.w3.org/2000/svg">
    <title id="notebookIconTitle">Computer icon</title>
    <desc id="notebookIconDesc">Computer icon denotes workplace milestone</desc>
    <path d="m158.757 179.8h-61.514a5.152 5.152 0 0 0 -5.152 5.152v9.269h71.818v-9.269a5.152 5.152 0 0 0 -5.152-5.152z"
          fill="#526faa"/>
    <rect fill="#ddd" height="57.777" rx="5.152" width="247.524" x="4.238" y="194.223"/>
    <path d="m246.61 194.223h-10a5.152 5.152 0 0 1 5.152 5.151v47.474a5.152 5.152 0 0 1 -5.152 5.152h10a5.152 5.152 0 0 0 5.152-5.152v-47.474a5.152 5.152 0 0 0 -5.152-5.151z"
          fill="#d6d1cf"/>
    <path d="m9.39 252h10a5.152 5.152 0 0 1 -5.152-5.152v-47.474a5.152 5.152 0 0 1 5.152-5.151h-10a5.152 5.152 0 0 0 -5.152 5.151v47.474a5.152 5.152 0 0 0 5.152 5.152z"
          fill="#fff"/>
    <path d="m26.528 237.556a5.945 5.945 0 1 1 -5.945-5.946 5.945 5.945 0 0 1 5.945 5.946z" fill="#ff4397"/>
    <path d="m163.909 206.836h66.488v16.276h-66.488z" fill="#fcc24c"/>
    <path d="m111.573 154.892h32.853v24.91h-32.853z" fill="#34518c"/>
    <path d="m158.757 179.8h-10a5.152 5.152 0 0 1 5.152 5.152v9.269h10v-9.269a5.152 5.152 0 0 0 -5.152-5.152z"
          fill="#34518c"/>
    <path d="m97.243 179.8h10a5.152 5.152 0 0 0 -5.152 5.152v9.269h-10v-9.269a5.152 5.152 0 0 1 5.152-5.152z"
          fill="#708dc8"/>
    <g fill="#690589">
        <path d="m246.61 254h-237.22a7.16 7.16 0 0 1 -7.152-7.152v-47.474a7.159 7.159 0 0 1 7.152-7.151h237.22a7.159 7.159 0 0 1 7.152 7.151v47.474a7.16 7.16 0 0 1 -7.152 7.152zm-237.22-57.777a3.155 3.155 0 0 0 -3.152 3.151v47.474a3.156 3.156 0 0 0 3.152 3.152h237.22a3.156 3.156 0 0 0 3.152-3.152v-47.474a3.155 3.155 0 0 0 -3.152-3.151z"/>
        <path d="m144.427 181.8h-32.854a2 2 0 0 1 -2-2v-24.91a2 2 0 0 1 2-2h32.854a2 2 0 0 1 2 2v24.91a2 2 0 0 1 -2 2zm-30.854-4h28.854v-20.91h-28.854z"/>
        <path d="m163.909 196.223h-71.818a2 2 0 0 1 -2-2v-9.269a7.161 7.161 0 0 1 7.152-7.152h61.514a7.161 7.161 0 0 1 7.152 7.152v9.269a2 2 0 0 1 -2 2zm-69.818-4h67.818v-7.269a3.156 3.156 0 0 0 -3.152-3.152h-61.514a3.156 3.156 0 0 0 -3.152 3.152z"/>
        <path d="m251.762 225.111h-247.524a2 2 0 1 1 0-4h247.524a2 2 0 0 1 0 4z"/>
        <path d="m230.4 225.111h-66.491a2 2 0 0 1 -2-2v-16.275a2 2 0 0 1 2-2h66.491a2 2 0 0 1 2 2v16.275a2 2 0 0 1 -2 2zm-64.488-4h62.488v-12.275h-62.491z"/>
        <path d="m128 254a2 2 0 0 1 -2-2v-28.889a2 2 0 0 1 4 0v28.889a2 2 0 0 1 -2 2z"/>
        <path d="m20.583 245.5a7.946 7.946 0 1 1 7.945-7.945 7.954 7.954 0 0 1 -7.945 7.945zm0-11.891a3.946 3.946 0 1 0 3.945 3.946 3.949 3.949 0 0 0 -3.945-3.945z"/>
        <path d="m230.4 254a2 2 0 0 1 -2-2v-14.444a2 2 0 1 1 4 0v14.444a2 2 0 0 1 -2 2z"/>
        <path d="m220.36 254a2 2 0 0 1 -2-2v-14.444a2 2 0 0 1 4 0v14.444a2 2 0 0 1 -2 2z"/>
        <path d="m210.324 254a2 2 0 0 1 -2-2v-14.444a2 2 0 1 1 4 0v14.444a2 2 0 0 1 -2 2z"/>
    </g>
    <rect fill="#526faa" height="150.892" rx="10.303" width="185.905" x="35.047" y="4"/>
    <path d="m210.649 4h-11a10.3 10.3 0 0 1 10.3 10.3v130.289a10.3 10.3 0 0 1 -10.3 10.3h11a10.3 10.3 0 0 0 10.3-10.3v-130.289a10.3 10.3 0 0 0 -10.3-10.3z"
          fill="#34518c"/>
    <path d="m45.351 154.892h11a10.3 10.3 0 0 1 -10.3-10.3v-130.292a10.3 10.3 0 0 1 10.3-10.3h-11a10.3 10.3 0 0 0 -10.3 10.3v130.289a10.3 10.3 0 0 0 10.3 10.303z"
          fill="#708dc8"/>
    <path d="m210.649 156.892h-165.298a12.317 12.317 0 0 1 -12.3-12.3v-130.292a12.317 12.317 0 0 1 12.3-12.3h165.3a12.317 12.317 0 0 1 12.3 12.3v130.289a12.317 12.317 0 0 1 -12.302 12.303zm-165.298-150.892a8.312 8.312 0 0 0 -8.3 8.3v130.289a8.312 8.312 0 0 0 8.3 8.3h165.3a8.313 8.313 0 0 0 8.3-8.3v-130.289a8.313 8.313 0 0 0 -8.3-8.3z"
          fill="#690589"/>
    <rect fill="#d153b0" height="128.185" rx="5" width="160.218" x="47.891" y="15.354"/>
    <path d="m203.109 15.354h-8a5 5 0 0 1 5 5v118.184a5 5 0 0 1 -5 5h8a5 5 0 0 0 5-5v-118.184a5 5 0 0 0 -5-5z"
          fill="#d153b0"/>
    <path d="m52.891 143.538h8a5 5 0 0 1 -5-5v-118.184a5 5 0 0 1 5-5h-8a5 5 0 0 0 -5 5v118.184a5 5 0 0 0 5 5z"
          fill="#d153b0"/>
    <path d="m203.109 145.539h-150.218a7.008 7.008 0 0 1 -7-7v-118.185a7.008 7.008 0 0 1 7-7h150.218a7.008 7.008 0 0 1 7 7v118.185a7.008 7.008 0 0 1 -7 7zm-150.218-128.185a3 3 0 0 0 -3 3v118.185a3 3 0 0 0 3 3h150.218a3 3 0 0 0 3-3v-118.185a3 3 0 0 0 -3-3z"
          fill="#690589"/>
    <path d="m55.891 50.681a2 2 0 0 1 -2-2v-12a2 2 0 0 1 4 0v12a2 2 0 0 1 -2 2z" fill="#ddd"/>
</svg>
