<svg viewBox="0 0 256 256" xmlns="http://www.w3.org/2000/svg">
    <circle cx="113.236" cy="79.649" fill="#f4efed" r="56.075" transform="matrix(.224 -.975 .975 .224 10.212 172.128)"/>
    <path d="m169.078 232.426h-111.685a22.024 22.024 0 0 1 -21.8-18.9l-6.1-42.526h167.485l-6.1 42.533a22.024 22.024 0 0 1 -21.8 18.893z"
          fill="#ff4397"/>
    <path d="m113.235 23.574c-1.334 0-2.653.063-3.964.155a56.059 56.059 0 0 1 0 111.84c1.311.092 2.63.155 3.964.155a56.075 56.075 0 1 0 0-112.15z"
          fill="#d6d1cf"/>
    <path d="m113.235 23.574c1.335 0 2.654.063 3.965.155a56.059 56.059 0 0 0 0 111.84c-1.311.092-2.63.155-3.965.155a56.075 56.075 0 0 1 0-112.15z"
          fill="#fff"/>
    <rect fill="#fcc24c" height="89.513" rx="6.051" width="12.102" x="107.185" y="34.893"/>
    <path d="m81.588 111.3a6.052 6.052 0 0 1 0-8.558l54.738-54.742a6.051 6.051 0 0 1 8.557 0 6.051 6.051 0 0 1 0 8.557l-54.738 54.743a6.051 6.051 0 0 1 -8.557 0z"
          fill="#fcc24c"/>
    <path d="m144.883 111.3a6.051 6.051 0 0 1 -8.557 0l-54.738-54.741a6.051 6.051 0 0 1 0-8.557 6.051 6.051 0 0 1 8.557 0l54.738 54.737a6.052 6.052 0 0 1 0 8.561z"
          fill="#fcc24c"/>
    <g fill="#690589">
        <path d="m113.235 137.724a58.075 58.075 0 1 1 58.075-58.075 58.14 58.14 0 0 1 -58.075 58.075zm0-112.15a54.075 54.075 0 1 0 54.075 54.075 54.135 54.135 0 0 0 -54.075-54.075z"/>
        <path d="m113.235 126.405a8.059 8.059 0 0 1 -8.05-8.051v-77.41a8.051 8.051 0 1 1 16.1 0v77.41a8.06 8.06 0 0 1 -8.05 8.051zm0-89.512a4.055 4.055 0 0 0 -4.05 4.051v77.41a4.051 4.051 0 1 0 8.1 0v-77.41a4.056 4.056 0 0 0 -4.05-4.051z"/>
        <path d="m85.867 115.065a8.027 8.027 0 0 1 -5.693-2.354 8.062 8.062 0 0 1 0-11.386l54.739-54.737a8.05 8.05 0 1 1 11.387 11.385l-54.74 54.738a8.03 8.03 0 0 1 -5.693 2.354zm-2.867-5.182a4.056 4.056 0 0 0 5.729 0l54.738-54.737a4.051 4.051 0 1 0 -5.729-5.729l-54.738 54.736a4.058 4.058 0 0 0 0 5.73z"/>
        <path d="m140.6 115.069a8 8 0 0 1 -5.692-2.358l-54.734-54.738a8.051 8.051 0 0 1 11.386-11.385l54.74 54.737a8.06 8.06 0 0 1 0 11.386 8 8 0 0 1 -5.7 2.358zm-54.733-66.838a4.05 4.05 0 0 0 -2.867 6.914l54.738 54.738a4.051 4.051 0 0 0 5.729-5.73l-54.736-54.737a4.042 4.042 0 0 0 -2.864-1.185z"/>
    </g>
    <path d="m171.16 54.392h-115.849a22.023 22.023 0 0 0 -21.311 16.456l-4.51 17.261h167.488l-4.51-17.261a22.023 22.023 0 0 0 -21.308-16.456z"
          fill="#ff4397"/>
    <path d="m219.008 71.396h11.16v29.468h-11.16z" fill="#f4efed"
          transform="matrix(.707 .707 -.707 .707 126.683 -133.581)"/>
    <path d="m218.115 102.494a2 2 0 0 1 -1.414-.586l-7.891-7.891a2 2 0 0 1 0-2.828l20.837-20.837a2 2 0 0 1 1.414-.586 2 2 0 0 1 1.415.586l7.89 7.891a2 2 0 0 1 0 2.828l-20.837 20.837a2 2 0 0 1 -1.414.586zm-5.063-9.894 5.063 5.063 18.009-18.008-5.063-5.063z"
          fill="#690589"/>
    <rect fill="#526faa" height="82.887" rx="8.809" width="218.471" x="4" y="88.109"/>
    <path d="m192.468 70.848a22.023 22.023 0 0 0 -21.308-16.456h-8.809a22.024 22.024 0 0 1 21.308 16.456l4.51 17.261h8.809z"
          fill="#e12579"/>
    <path d="m34 70.848a22.023 22.023 0 0 1 21.311-16.456h8.809a22.024 22.024 0 0 0 -21.308 16.456l-4.512 17.261h-8.807z"
          fill="#ff61b5"/>
    <path d="m189.05 171-6.1 42.533a22.024 22.024 0 0 1 -21.8 18.9h7.928a22.024 22.024 0 0 0 21.8-18.9l6.1-42.533z"
          fill="#e12579"/>
    <path d="m37.421 171 6.1 42.533a22.024 22.024 0 0 0 21.8 18.9h-7.928a22.024 22.024 0 0 1 -21.8-18.9l-6.1-42.533z"
          fill="#ff61b5"/>
    <path d="m196.978 90.109h-167.485a2 2 0 0 1 -1.935-2.5l4.509-17.261a24.033 24.033 0 0 1 23.243-17.956h115.85a24.031 24.031 0 0 1 23.24 17.95l4.51 17.262a2 2 0 0 1 -1.935 2.5zm-164.9-4h162.311l-3.855-14.755a20.032 20.032 0 0 0 -19.374-14.962h-115.85a20.031 20.031 0 0 0 -19.373 14.962z"
          fill="#690589"/>
    <path d="m169.078 234.426h-111.685a24.145 24.145 0 0 1 -23.781-20.614l-6.1-42.532a2 2 0 0 1 1.981-2.28h167.485a2 2 0 0 1 1.98 2.284l-6.1 42.532a24.144 24.144 0 0 1 -23.78 20.61zm-137.278-61.426 5.772 40.249a20.124 20.124 0 0 0 19.821 17.181h111.685a20.124 20.124 0 0 0 19.822-17.185l5.771-40.245z"
          fill="#690589"/>
    <path d="m213.662 88.109h-7.048a8.809 8.809 0 0 1 8.81 8.809v65.269a8.809 8.809 0 0 1 -8.81 8.809h7.048a8.809 8.809 0 0 0 8.809-8.809v-65.269a8.809 8.809 0 0 0 -8.809-8.809z"
          fill="#34518c"/>
    <path d="m12.809 171h7.048a8.809 8.809 0 0 1 -8.81-8.809v-65.273a8.809 8.809 0 0 1 8.81-8.809h-7.048a8.809 8.809 0 0 0 -8.809 8.809v65.269a8.809 8.809 0 0 0 8.809 8.813z"
          fill="#708dc8"/>
    <rect fill="#f4efed" height="48.059" rx="8.809" width="62.848" x="29.493" y="105.523"/>
    <rect fill="#f4efed" height="48.059" rx="8.809" width="62.848" x="134.13" y="105.523"/>
    <path d="m213.662 173h-200.853a10.821 10.821 0 0 1 -10.809-10.813v-65.269a10.821 10.821 0 0 1 10.809-10.809h200.853a10.821 10.821 0 0 1 10.809 10.809v65.269a10.821 10.821 0 0 1 -10.809 10.813zm-200.853-82.891a6.817 6.817 0 0 0 -6.809 6.809v65.269a6.817 6.817 0 0 0 6.809 6.813h200.853a6.817 6.817 0 0 0 6.809-6.809v-65.273a6.817 6.817 0 0 0 -6.809-6.809z"
          fill="#690589"/>
    <path d="m11.047 119.771a2 2 0 0 1 -2-2v-10.571a2 2 0 0 1 4 0v10.571a2 2 0 0 1 -2 2z" fill="#690589"/>
    <path d="m83.532 155.582h-45.232a10.821 10.821 0 0 1 -10.809-10.809v-30.44a10.822 10.822 0 0 1 10.809-10.81h45.23a10.822 10.822 0 0 1 10.809 10.81v30.44a10.821 10.821 0 0 1 -10.807 10.809zm-45.232-48.059a6.817 6.817 0 0 0 -6.809 6.81v30.44a6.817 6.817 0 0 0 6.809 6.809h45.23a6.817 6.817 0 0 0 6.809-6.809v-30.44a6.818 6.818 0 0 0 -6.809-6.81z"
          fill="#690589"/>
    <path d="m188.169 155.582h-45.23a10.821 10.821 0 0 1 -10.809-10.809v-30.44a10.822 10.822 0 0 1 10.809-10.81h45.23a10.822 10.822 0 0 1 10.809 10.81v30.44a10.821 10.821 0 0 1 -10.809 10.809zm-45.23-48.059a6.818 6.818 0 0 0 -6.809 6.81v30.44a6.817 6.817 0 0 0 6.809 6.809h45.23a6.817 6.817 0 0 0 6.809-6.809v-30.44a6.817 6.817 0 0 0 -6.809-6.81z"
          fill="#690589"/>
    <circle cx="237.823" cy="72.895" fill="#ff4397" r="14.177"/>
    <path d="m247.848 62.87a14.16 14.16 0 0 0 -12.668-3.9 14.174 14.174 0 0 1 0 27.853 14.176 14.176 0 0 0 12.668-23.953z"
          fill="#e12579"/>
    <path d="m237.823 89.071a16.177 16.177 0 1 1 11.439-4.738 16.068 16.068 0 0 1 -11.439 4.738zm0-28.353a12.177 12.177 0 1 0 8.611 20.787 12.177 12.177 0 0 0 -8.611-20.787z"
          fill="#690589"/>
</svg>
