<svg viewBox="0 0 256 256" xmlns="http://www.w3.org/2000/svg">
    <title id="notebookIconTitle">3D Glasses icon</title>
    <desc id="notebookIconDesc">3D glasses icon denotes knowledge workplace highlight</desc>
    <path d="m16.739 147.712a6.809 6.809 0 0 1 -6.006-10l45.767-86.222c.047-.088.1-.176.147-.263a15.224 15.224 0 0 1 18.913-6.435l20.088 8.082a6.807 6.807 0 0 1 -5.081 12.626l-20.088-8.079a1.691 1.691 0 0 0 -2.051.635l-45.671 86.044a6.805 6.805 0 0 1 -6.018 3.612z"
          fill="#fcc24c"/>
    <path d="m239.261 147.712a6.809 6.809 0 0 0 6.006-10l-45.767-86.222c-.047-.088-.1-.176-.147-.263a15.224 15.224 0 0 0 -18.913-6.435l-20.088 8.082a6.807 6.807 0 0 0 5.081 12.626l20.088-8.082a1.691 1.691 0 0 1 2.051.635l45.671 86.047a6.8 6.8 0 0 0 6.018 3.612z"
          fill="#fcc24c"/>
    <path d="m16.739 149.712a8.809 8.809 0 0 1 -7.773-12.937l45.768-86.222c.063-.118.126-.23.192-.342a17.215 17.215 0 0 1 21.382-7.275l20.092 8.083a8.806 8.806 0 0 1 -6.574 16.34l-19.832-7.98-45.47 85.654a8.794 8.794 0 0 1 -7.785 4.679zm53.061-104.044a13.228 13.228 0 0 0 -11.424 6.575l-.106.188-45.77 86.219a4.813 4.813 0 0 0 1.993 6.5 4.737 4.737 0 0 0 2.247.563 4.8 4.8 0 0 0 4.252-2.555l45.67-86.039c.031-.058.065-.115.1-.17a3.669 3.669 0 0 1 4.465-1.382l20.086 8.082a4.807 4.807 0 1 0 3.587-8.919l-20.086-8.082a13.409 13.409 0 0 0 -5.014-.98z"
          fill="#690589"/>
    <path d="m239.261 149.712a8.794 8.794 0 0 1 -7.785-4.679l-45.465-85.654-19.831 7.98a8.807 8.807 0 1 1 -6.575-16.34l20.087-8.083a17.213 17.213 0 0 1 21.383 7.276c.065.111.128.223.189.338l45.77 86.225a8.809 8.809 0 0 1 -7.773 12.937zm-53.086-94.421a3.669 3.669 0 0 1 3.063 1.657c.036.055.07.112.1.17l45.67 86.04a4.8 4.8 0 0 0 4.252 2.554 4.743 4.743 0 0 0 2.248-.563 4.812 4.812 0 0 0 1.991-6.5l-45.87-86.405a13.234 13.234 0 0 0 -16.444-5.6l-20.085 8.086a4.807 4.807 0 1 0 3.589 8.918l20.087-8.083a3.747 3.747 0 0 1 1.399-.274z"
          fill="#690589"/>
    <path d="m4 139.71v62.625a10 10 0 0 0 10 10h88.064a10 10 0 0 0 9.92-8.736l3.138-24.633a13.22 13.22 0 0 1 12.322-11.679 12.931 12.931 0 0 1 13.383 11.285l3.189 25.027a10 10 0 0 0 9.92 8.736h88.064a10 10 0 0 0 10-10v-62.625a10 10 0 0 0 -10-10h-228a10 10 0 0 0 -10 10z"
          fill="#f4efed"/>
    <path d="m242 129.71h-10a10 10 0 0 1 10 10v62.625a10 10 0 0 1 -10 10h10a10 10 0 0 0 10-10v-62.625a10 10 0 0 0 -10-10z"
          fill="#d6d1cf"/>
    <path d="m14 129.71h10a10 10 0 0 0 -10 10v62.625a10 10 0 0 0 10 10h-10a10 10 0 0 1 -10-10v-62.625a10 10 0 0 1 10-10z"
          fill="#fff"/>
    <path d="m229.511 200.21h-62.811a10 10 0 0 1 -9.857-8.312l-8.576-50.063h81.243a10 10 0 0 1 10 10v38.375a10 10 0 0 1 -9.999 10z"
          fill="#526faa"/>
    <path d="m89.3 200.21h-62.811a10 10 0 0 1 -10-10v-38.375a10 10 0 0 1 10-10h81.243l-8.576 50.065a10 10 0 0 1 -9.856 8.31z"
          fill="#ff4397"/>
    <g fill="#690589">
        <path d="m242 214.335h-88.065a12.024 12.024 0 0 1 -11.9-10.483l-3.189-25.027a10.874 10.874 0 0 0 -11.315-9.54 11.28 11.28 0 0 0 -10.422 9.934l-3.138 24.633a12.025 12.025 0 0 1 -11.9 10.483h-88.071a12.013 12.013 0 0 1 -12-12v-62.625a12.014 12.014 0 0 1 12-12h228a12.014 12.014 0 0 1 12 12v62.625a12.013 12.013 0 0 1 -12 12zm-113.984-49.06a14.84 14.84 0 0 1 14.8 13.044l3.184 25.027a8.016 8.016 0 0 0 7.935 6.989h88.065a8.009 8.009 0 0 0 8-8v-62.625a8.009 8.009 0 0 0 -8-8h-228a8.009 8.009 0 0 0 -8 8v62.625a8.009 8.009 0 0 0 8 8h88.064a8.017 8.017 0 0 0 7.936-6.989l3.139-24.633a15.126 15.126 0 0 1 14.221-13.424q.328-.013.656-.014z"/>
        <path d="m25.81 175.213a2 2 0 0 1 -2-2v-12a2 2 0 0 1 4 0v12a2 2 0 0 1 -2 2z"/>
        <path d="m89.3 202.209h-62.811a12.013 12.013 0 0 1 -12-12v-38.374a12.014 12.014 0 0 1 12-12h81.243a2 2 0 0 1 1.971 2.338l-8.576 50.063a11.971 11.971 0 0 1 -11.827 9.973zm-62.81-58.374a8.009 8.009 0 0 0 -8 8v38.374a8.009 8.009 0 0 0 8 8h62.81a7.982 7.982 0 0 0 7.886-6.648l8.175-47.726z"/>
        <path d="m229.511 202.209h-62.811a11.971 11.971 0 0 1 -11.828-9.973l-8.572-50.063a2 2 0 0 1 1.971-2.338h81.243a12.014 12.014 0 0 1 12 12v38.374a12.013 12.013 0 0 1 -12.003 12zm-78.871-58.374 8.175 47.725a7.981 7.981 0 0 0 7.886 6.649h62.81a8.009 8.009 0 0 0 8-8v-38.374a8.009 8.009 0 0 0 -8-8z"/>
    </g>
</svg>
