<svg viewBox="0 0 256 256" xmlns="http://www.w3.org/2000/svg">
    <path d="m128 252 29.044-19.472-14.406-184.33h-29.276l-14.406 184.33z" fill="#fcc24c"/>
    <path d="m101.605 198.642 51.861-11.889-1.227-15.704-49.362 11.316z" fill="#526faa"/>
    <path d="m104.676 159.345 45.827-10.505-1.227-15.705-43.328 9.933z" fill="#526faa"/>
    <path d="m107.747 120.048 39.793-9.122-1.227-15.704-37.294 8.549z" fill="#526faa"/>
    <path d="m110.818 80.751 33.759-7.739-1.227-15.704-31.26 7.166z" fill="#526faa"/>
    <path d="m157.044 232.528-14.406-184.33h-7l14.754 188.789z" fill="#dea42e"/>
    <path d="m98.956 232.528 14.406-184.33h7l-14.754 188.789z" fill="#fce06a"/>
    <path d="m155.202 208.962-55.397 12.7-.849 10.866 5.907 3.96 51.566-11.821z" fill="#526faa"/>
    <path d="m113.362 48.198h29.276l12.144-44.198h-53.564z" fill="#fcc24c"/>
    <path d="m147.782 4-12.144 44.198h7l12.144-44.198z" fill="#dea42e"/>
    <path d="m108.218 4 12.144 44.198h-7l-12.144-44.198z" fill="#fce06a"/>
    <path d="m142.638 50.2h-29.276a2 2 0 0 1 -1.928-1.471l-12.145-44.199a2 2 0 0 1 1.929-2.53h53.564a2 2 0 0 1 1.929 2.53l-12.145 44.2a2 2 0 0 1 -1.928 1.47zm-27.751-4h26.226l11.045-40.2h-48.317z"
          fill="#690589"/>
    <path d="m116.969 33.134a2 2 0 0 1 -1.928-1.47l-3.3-12a2 2 0 1 1 3.859-1.064l3.3 12a2 2 0 0 1 -1.93 2.53z"
          fill="#690589"/>
    <path d="m148.325 210.539 1.228 15.704 6.876-1.576-1.192-15.257-.035-.448z" fill="#34518c"/>
    <path d="m146.589 188.329 6.877-1.576-.241-3.088-.986-12.616-6.877 1.576z" fill="#34518c"/>
    <path d="m142.399 134.712 1.227 15.704 6.877-1.576-.443-5.67-.784-10.035z" fill="#34518c"/>
    <path d="m139.436 96.798 1.227 15.704 6.877-1.576-1.227-15.704z" fill="#34518c"/>
    <path d="m136.473 58.885 1.227 15.704 6.877-1.577-1.227-15.704z" fill="#34518c"/>
    <path d="m105.661 236.305 1.272-16.277-7.128 1.634-.849 10.866 5.907 3.96z" fill="#708dc8"/>
    <path d="m110.004 180.731-7.127 1.634-1.272 16.277 7.127-1.634z" fill="#708dc8"/>
    <path d="m104.676 159.345 7.127-1.634 1.273-16.277-7.128 1.634z" fill="#708dc8"/>
    <path d="m109.019 103.771-.446 5.71-.826 10.567 7.128-1.634 1.272-16.277z" fill="#708dc8"/>
    <path d="m110.818 80.751 7.128-1.634 1.272-16.277-7.128 1.634z" fill="#708dc8"/>
    <g fill="#690589">
        <path d="m128 254a2 2 0 0 1 -1.114-.339l-29.044-19.472a2 2 0 0 1 -.88-1.817l14.406-184.33a2 2 0 0 1 1.994-1.844h29.276a2 2 0 0 1 1.994 1.844l14.406 184.33a2 2 0 0 1 -.881 1.817l-29.044 19.472a1.994 1.994 0 0 1 -1.113.339zm-26.959-22.482 26.959 18.074 26.959-18.074-14.171-181.318h-25.576z"/>
        <path d="m110.818 82.751a2 2 0 0 1 -1.994-2.156l1.276-16.277a2 2 0 0 1 1.547-1.793l31.253-7.166a2 2 0 0 1 2.442 1.793l1.227 15.7a2 2 0 0 1 -1.547 2.105l-33.757 7.743a2 2 0 0 1 -.447.051zm3.151-16.651-.945 12.1 29.425-6.745-.913-11.672z"/>
        <path d="m107.747 122.048a2 2 0 0 1 -1.994-2.155l1.272-16.278a2 2 0 0 1 1.547-1.793l37.293-8.549a2 2 0 0 1 2.442 1.793l1.227 15.7a2 2 0 0 1 -1.547 2.105l-39.793 9.129a2 2 0 0 1 -.447.048zm3.151-16.656-.945 12.1 35.459-8.129-.912-11.673z"/>
        <path d="m104.676 161.345a2 2 0 0 1 -1.994-2.155l1.272-16.278a2 2 0 0 1 1.547-1.793l43.328-9.933a2 2 0 0 1 2.441 1.794l1.227 15.7a2 2 0 0 1 -1.547 2.1l-45.827 10.505a1.94 1.94 0 0 1 -.447.06zm3.151-16.656-.945 12.1 41.493-9.513-.912-11.672z"/>
        <path d="m101.6 200.642a2 2 0 0 1 -1.994-2.156l1.272-16.277a2 2 0 0 1 1.548-1.793l49.366-11.316a2 2 0 0 1 2.441 1.793l1.227 15.7a2 2 0 0 1 -1.547 2.1l-51.862 11.889a2 2 0 0 1 -.451.06zm3.152-16.656-.946 12.1 47.528-10.9-.912-11.672z"/>
        <path d="m104.863 238.488a2 2 0 0 1 -1.114-.339l-5.907-3.96a2 2 0 0 1 -.88-1.817l.849-10.866a2 2 0 0 1 1.548-1.794l55.4-12.7a2 2 0 0 1 2.441 1.794l1.228 15.7a2 2 0 0 1 -1.547 2.105l-51.571 11.826a2 2 0 0 1 -.447.051zm-3.822-6.97 4.218 2.827 49.041-11.245-.913-11.672-51.7 11.853z"/>
    </g>
</svg>
